<svg width="16" height="16" viewBox="0 0 16 16" fill="none" xmlns="http://www.w3.org/2000/svg">
<g clip-path="url(#clip0_1_678)">
<path d="M15.1721 5.54545L8.96628 11.7697C8.8924 11.8436 8.81236 11.8961 8.72617 11.9271C8.63998 11.9581 8.54763 11.9734 8.44913 11.9729C8.35062 11.9729 8.25827 11.9574 8.17208 11.9263C8.08589 11.8953 8.00585 11.8431 7.93198 11.7697L1.7077 5.54545C1.53532 5.37306 1.44913 5.15759 1.44913 4.89901C1.44913 4.64044 1.54148 4.4188 1.72617 4.2341C1.91087 4.04941 2.12635 3.95706 2.37261 3.95706C2.61887 3.95706 2.83435 4.04941 3.01905 4.2341L8.44913 9.66418L13.8792 4.2341C14.0516 4.06172 14.2641 3.97553 14.5168 3.97553C14.7694 3.97553 14.9879 4.06788 15.1721 4.25257C15.3568 4.43727 15.4491 4.65275 15.4491 4.89901C15.4491 5.14527 15.3568 5.36075 15.1721 5.54545Z" fill="white"/>
</g>
<defs>
<clipPath id="clip0_1_678">
<rect width="15" height="15" fill="white" transform="matrix(0 -1 1 0 0.5 15.5)"/>
</clipPath>
</defs>
</svg>
