<svg xmlns="http://www.w3.org/2000/svg" width="49" height="49" fill="none"><path fill="url(#a)" fill-opacity=".5" fill-rule="evenodd" d="m11.412 5.272.91.145.935.264 18.654 6.782.816.333.784.423.745.503.7.575.65.637.593.692.529.738.458.775.382.805.297.826.205.84.105.844.332 18.42-.112.894-.22.828-.323.753-.42.672-.512.581-.596.483-.675.376-.747.261-.813.136-.87.003-.919-.14-20.61-4.394-1.007-.233-1.06-.454-1.012-.657-.907-.684-.827-.78-.739-.865-.638-.934-.528-.991-.409-1.033-.28-1.062-.142-1.076.003-1.076L5.78 9.649l.13-.864.256-.779.37-.69.47-.597.563-.502.645-.401.716-.298.777-.193.83-.083.874.03Zm27.095 33.601-.332-18.42.33 17.466.002.954Z" clip-rule="evenodd"/><path fill="url(#b)" fill-rule="evenodd" d="m9.89 3.574-.131.863L8.206 25.83l-.003 1.077.142 1.076.28 1.061.409 1.033.528.991.638.934.739.865.827.78.907.684.974.574 1.03.452 1.074.318 22.042 4.993.92.14.87-.004.812-.136.747-.26-.744.44-.673.375-.71.422.71-.422.673-.375.744-.44.675-.377-1.419.817-.673.375-.71.422-1.35.777-1.317.758-.666.372-.733.26-.793.142-.847.014-.892-.121-21.27-4.495-1.03-.29-.987-.419-.93-.537-.864-.642-.786-.737-.698-.818-.602-.887-.495-.943-.378-.986-.255-1.015L4 31.048l.018-1.036L5.82 9.335l.14-.84.259-.76 1.313-1.871L8 5.272l.97-1.224.996-1.255 1.019-1.285-.47.596-.37.69-.255.78Z" clip-rule="evenodd"/><g filter="url(#c)"><path fill="url(#d)" fill-opacity=".3" fill-rule="evenodd" d="m15.39.061.91.145.935.264 19.268 6.61.817.333.783.423.745.503.7.575.65.638.593.691.529.738.459.775.38.805.298.826.205.84.105.844L44 35.82l-.112.895-.22.828-.323.753-.42.671-.512.582-.596.483-.675.376-.747.26-.813.137-.87.003-.919-.14-22.041-4.992-1.007-.233-1.06-.454-1.012-.657-.907-.684-.828-.78-.738-.865-.638-.934-.528-.99-.409-1.034-.28-1.062-.142-1.076.003-1.076L9.759 4.438l.131-.864.256-.779.368-.69.472-.597.563-.502.644-.401.716-.298.778-.193.83-.083.874.03ZM44 35.82 42.767 15.07l1.23 19.794.003.955Z" clip-rule="evenodd"/><path stroke="url(#e)" d="m43.498 35.804-.102.815-.202.76-.294.684-.378.605-.456.519-.53.43-.6.333-.666.233-.73.122-.79.003-.864-.131-22.022-4.988h-.002l-.961-.223-.98-.42-.961-.624-.87-.656-.789-.744-.703-.823-.608-.89-.502-.941-.387-.98-.264-1.001-.134-1.012.003-1.025 1.55-21.356.122-.803.23-.698.327-.613.416-.528.498-.444.574-.357.643-.268.706-.175.761-.076.81.028.849.135.894.253 19.242 6.6.778.318.738.398.705.477.665.545.619.607.564.66.504.701.435.737.362.762.28.778.191.786.1.8 1.23 20.687Z"/></g><g fill-rule="evenodd" clip-rule="evenodd" filter="url(#f)"><path fill="url(#g)" d="m17.435 17.025.866-.927-1.026 1.1.16-.173Zm20.892.76-11.653 8.634h-.002l-.205.128-.221.09-.235.055-.245.02-.252-.013-.254-.048-.255-.08-.252-.113-.244-.143-.363.468-.364.468.249.11.252.078.253.046.249.013.243-.021.233-.056.22-.09.204-.127 11.617-8.613 1.025-.806ZM18.14 16.27l-.865.926-.128.195-.096.214-.063.23-.03.244.004.254.037.259.072.262.106.262.14.258.176.25 5.399 6.884.2.229.217.2.232.172.241.14.364-.467.363-.468-.234-.175-.22-.203-.204-.233-5.48-6.98-.178-.254-.143-.261-.108-.265-.074-.265-.039-.262-.005-.256.03-.246.062-.232.095-.216.13-.196Zm0 0 .161-.173-1.026 1.1.865-.927Z"/><path fill="url(#h)" d="m38.232 15.37.155.223.129.227.102.23.076.23.05.227.022.221-.004.214-.032.202-.059.188-.086.172-.115.151-.143.129-11.654 8.634-.206.128-.221.09-.235.056-.245.02-.251-.014-.255-.047-.255-.08-.252-.113-.244-.144-.234-.174 1.077-4.324 10.515-7.232.169-.094.183-.061.195-.03h.203l.21.03.213.057.213.085.211.111.206.137.199.16.188.185.175.207Zm-20.379 1.544.063-.232.095-.216.702-.63.988-.1.26.057.257.089.253.118.244.147.233.176.219.202.2.229 3.985 5.062-1.077 4.324-.22-.204-.204-.233-5.48-6.98-.178-.254-.143-.26-.108-.266-.074-.265-.039-.262-.005-.256.03-.246Zm1.848-1.178-.258-.026-.252.008-.245.042-.233.077.988-.101Zm-.988.1-.218.114-.194.147-.16.173-.13.196.702-.63Z"/></g><defs><linearGradient id="a" x1="5.138" x2="36.562" y1="46.286" y2="8.096" gradientUnits="userSpaceOnUse"><stop offset=".321" stop-color="#9400FF" stop-opacity=".66"/><stop offset=".581" stop-color="#9400FF" stop-opacity=".76"/><stop offset=".894" stop-color="#9400FF"/></linearGradient><linearGradient id="b" x1="-5.287" x2="38.66" y1="7.262" y2="51.151" gradientUnits="userSpaceOnUse"><stop stop-color="#1E092E" stop-opacity=".1"/><stop offset=".359" stop-color="#9400FF" stop-opacity=".63"/><stop offset=".684" stop-color="#9E00FF"/><stop offset="1" stop-color="#393009"/></linearGradient><linearGradient id="d" x1="9.34" x2="40.765" y1="42.343" y2="4.153" gradientUnits="userSpaceOnUse"><stop offset=".321" stop-color="#FE6543"/><stop offset=".685" stop-color="#FD6344"/><stop offset=".894" stop-color="#F3335A"/></linearGradient><linearGradient id="e" x1="8.138" x2="42.913" y1="36.879" y2="7.705" gradientUnits="userSpaceOnUse"><stop offset=".181" stop-color="#fff" stop-opacity=".35"/><stop offset=".533" stop-color="#fff" stop-opacity="0"/></linearGradient><linearGradient id="g" x1="15.961" x2="16.212" y1="7.707" y2="30.097" gradientUnits="userSpaceOnUse"><stop offset=".302" stop-color="#D795FF"/><stop offset=".993" stop-color="#7FB8C0" stop-opacity=".63"/></linearGradient><linearGradient id="h" x1="26.61" x2="37.888" y1="30.491" y2="10.412" gradientUnits="userSpaceOnUse"><stop stop-color="#fff"/><stop offset=".645" stop-color="#fff" stop-opacity=".57"/></linearGradient><filter id="c" width="61.797" height="66.776" x="-4.797" y="-12.969" color-interpolation-filters="sRGB" filterUnits="userSpaceOnUse"><feFlood flood-opacity="0" result="BackgroundImageFix"/><feGaussianBlur in="BackgroundImageFix" stdDeviation="6.5"/><feComposite in2="SourceAlpha" operator="in" result="effect1_backgroundBlur_1_693"/><feBlend in="SourceGraphic" in2="effect1_backgroundBlur_1_693" result="shape"/></filter><filter id="f" width="47.794" height="39.085" x=".253" y="9.758" color-interpolation-filters="sRGB" filterUnits="userSpaceOnUse"><feFlood flood-opacity="0" result="BackgroundImageFix"/><feColorMatrix in="SourceAlpha" result="hardAlpha" values="0 0 0 0 0 0 0 0 0 0 0 0 0 0 0 0 0 0 127 0"/><feOffset dx="-3.712" dy="8.353"/><feGaussianBlur stdDeviation="6.497"/><feComposite in2="hardAlpha" operator="out"/><feColorMatrix values="0 0 0 0 0.103333 0 0 0 0 0.4104 0 0 0 0 0.43 0 0 0 0.25 0"/><feBlend in2="BackgroundImageFix" result="effect1_dropShadow_1_693"/><feBlend in="SourceGraphic" in2="effect1_dropShadow_1_693" result="shape"/></filter></defs></svg>